<svg width="20" height="20" viewBox="0 0 20 20" fill="none" xmlns="http://www.w3.org/2000/svg">
<path d="M16.6663 0H3.33375C2.4504 0.00263788 1.60398 0.354718 0.979347 0.979347C0.354718 1.60398 0.00263788 2.4504 0 3.33375L0 16.6663C0 18.5013 1.5 20 3.33375 20H16.6663C17.5497 19.9977 18.3963 19.6457 19.021 19.021C19.6457 18.3963 19.9977 17.5497 20 16.6663V3.33375C20 1.5 18.5 0 16.6663 0ZM16.6663 2.5C16.8225 2.5 16.97 2.545 17.0963 2.62375L9.99875 8.49125L2.9025 2.62375C3.03137 2.54294 3.18039 2.50006 3.3325 2.5H16.665H16.6663ZM3.33375 17.5C3.29654 17.5 3.25937 17.4975 3.2225 17.4925L7.62875 11.38L7.0575 10.8088L2.5 15.3663V3.43L10 12.5L17.5 3.43V15.3663L12.9425 10.8088L12.3713 11.38L16.7775 17.4925C16.741 17.4975 16.7043 17.5 16.6675 17.5H3.33375Z" fill="#606060"/>
</svg>
