<svg width="24" height="24" viewBox="0 0 24 24" fill="none" xmlns="http://www.w3.org/2000/svg">
<path d="M19 22C17.9 22 16.9583 21.6083 16.175 20.825C15.3917 20.0417 15 19.1 15 18V13.5C15 12.8 15.2417 12.2083 15.725 11.725C16.2083 11.2417 16.8 11 17.5 11C18.2 11 18.7917 11.2417 19.275 11.725C19.7583 12.2083 20 12.8 20 13.5V18H18V13.5C18 13.3667 17.95 13.25 17.85 13.15C17.75 13.05 17.6333 13 17.5 13C17.3667 13 17.25 13.05 17.15 13.15C17.05 13.25 17 13.3667 17 13.5V18C17 18.55 17.196 19.021 17.588 19.413C17.98 19.805 18.4507 20.0007 19 20C19.55 20 20.021 19.804 20.413 19.412C20.805 19.02 21.0007 18.5493 21 18V14H23V18C23 19.1 22.6083 20.0417 21.825 20.825C21.0417 21.6083 20.1 22 19 22ZM3 18C2.45 18 1.979 17.804 1.587 17.412C1.195 17.02 0.999335 16.5493 1 16V4C1 3.45 1.196 2.979 1.588 2.587C1.98 2.195 2.45067 1.99934 3 2H19C19.55 2 20.021 2.196 20.413 2.588C20.805 2.98 21.0007 3.45067 21 4V10H17.5C16.5333 10 15.7083 10.3417 15.025 11.025C14.3417 11.7083 14 12.5333 14 13.5V18H3ZM11 11L19 6V4L11 9L3 4V6L11 11Z" fill="#606060"/>
</svg>
