<svg width="20" height="20" viewBox="0 0 20 20" fill="none" xmlns="http://www.w3.org/2000/svg">
<path d="M18.8998 1.10016C18.1661 0.366385 17.2831 0 16.2501 0H3.74994C2.71685 0 1.83393 0.366385 1.10016 1.10016C0.366385 1.83393 0 2.71685 0 3.74994V16.2501C0 17.2831 0.366385 18.1661 1.10016 18.8998C1.83393 19.6336 2.71685 20 3.74994 20H6.667C6.8572 20 7.00035 19.993 7.09645 19.98C7.20826 19.9576 7.30918 19.8979 7.38275 19.8108C7.47785 19.7107 7.5259 19.5655 7.5259 19.3753L7.51889 18.4894C7.51489 17.9248 7.51289 17.4784 7.51289 17.148L7.21257 17.2001C7.02237 17.2351 6.78212 17.2501 6.49082 17.2461C6.18718 17.2405 5.88452 17.21 5.58586 17.155C5.26793 17.0963 4.96864 16.9625 4.71295 16.7646C4.44516 16.562 4.24543 16.2827 4.14035 15.9638L4.01021 15.6634C3.90052 15.4265 3.76272 15.2037 3.59978 14.9997C3.41358 14.7565 3.22439 14.5923 3.03318 14.5052L2.94309 14.4402C2.88027 14.3952 2.82312 14.3427 2.77291 14.284C2.72495 14.2295 2.68547 14.1681 2.65579 14.1018C2.62976 14.0407 2.65178 13.9907 2.72086 13.9516C2.79093 13.9116 2.91606 13.8926 3.09925 13.8926L3.35953 13.9326C3.53271 13.9667 3.74794 14.0708 4.0032 14.244C4.26154 14.4201 4.47733 14.6516 4.63487 14.9217C4.83508 15.277 5.07533 15.5483 5.35763 15.7355C5.63992 15.9217 5.92422 16.0158 6.21052 16.0158C6.49682 16.0158 6.74408 15.9938 6.9533 15.9507C7.15563 15.9089 7.35223 15.843 7.53892 15.7545C7.617 15.1739 7.82922 14.7255 8.17659 14.4131C7.72649 14.369 7.2804 14.2907 6.84218 14.1789C6.41453 14.0614 6.00324 13.8909 5.6179 13.6714C5.21472 13.4519 4.85861 13.1553 4.5698 12.7984C4.29251 12.4511 4.06427 11.9956 3.88608 11.432C3.70889 10.8674 3.6198 10.2157 3.6198 9.47795C3.6198 8.42785 3.96216 7.53391 4.64788 6.79513C4.32754 6.00631 4.35758 5.12038 4.73898 4.14035C4.99124 4.06126 5.36463 4.12033 5.85915 4.31553C6.35367 4.51074 6.71605 4.67791 6.94629 4.81606C7.17654 4.9562 7.36073 5.07333 7.49987 5.16843C8.31371 4.94194 9.15474 4.8281 9.9995 4.83007C10.8594 4.83007 11.6923 4.94319 12.5001 5.16843L12.9946 4.8561C13.375 4.62771 13.7762 4.43598 14.1929 4.2835C14.6534 4.10931 15.0038 4.06227 15.248 4.14035C15.6384 5.12138 15.6725 6.00631 15.3511 6.79614C16.0368 7.53391 16.3802 8.42785 16.3802 9.47895C16.3802 10.2167 16.2911 10.8704 16.1129 11.438C15.9357 12.0066 15.7055 12.4621 15.4232 12.8054C15.1293 13.1577 14.7717 13.4515 14.3691 13.6714C13.9486 13.9056 13.5402 14.0748 13.1448 14.1789C12.7066 14.2911 12.2605 14.3697 11.8104 14.4141C12.2609 14.8045 12.4871 15.4202 12.4871 16.2621V19.3753C12.4871 19.5225 12.5081 19.6416 12.5522 19.7327C12.5724 19.7766 12.6013 19.816 12.6371 19.8485C12.6728 19.881 12.7148 19.906 12.7604 19.9219C12.8565 19.956 12.9406 19.978 13.0147 19.986C13.0887 19.996 13.1949 19.999 13.333 19.999H16.2501C17.2831 19.999 18.1661 19.6326 18.8998 18.8988C19.6326 18.1661 20 17.2821 20 16.2491V3.74994C20 2.71685 19.6336 1.83393 18.8998 1.10016Z" fill="#606060"/>
</svg>
