<svg width="16" height="16" viewBox="0 0 16 16" fill="none" xmlns="http://www.w3.org/2000/svg">
<path d="M5.19649 12.8043C5.25837 12.8663 5.33188 12.9155 5.41281 12.9491C5.49374 12.9827 5.5805 13 5.66812 13C5.75575 13 5.84251 12.9827 5.92344 12.9491C6.00437 12.9155 6.07787 12.8663 6.13975 12.8043L10.5683 8.37578C10.6177 8.32647 10.6569 8.26791 10.6836 8.20344C10.7104 8.13898 10.7241 8.06987 10.7241 8.00007C10.7241 7.93028 10.7104 7.86117 10.6836 7.7967C10.6569 7.73223 10.6177 7.67367 10.5683 7.62437L6.13975 3.19584C5.87863 2.93472 5.45762 2.93472 5.19649 3.19584C4.93537 3.45697 4.93537 3.87798 5.19649 4.1391L9.0548 8.00274L5.19117 11.8664C4.93537 12.1222 4.93537 12.5485 5.19649 12.8043Z" fill="#606060"/>
</svg>
