<svg width="16" height="16" viewBox="0 0 16 16" fill="none" xmlns="http://www.w3.org/2000/svg">
<path d="M3.1957 5.19649C3.13367 5.25837 3.08445 5.33188 3.05087 5.41281C3.01729 5.49374 3 5.5805 3 5.66812C3 5.75575 3.01729 5.84251 3.05087 5.92344C3.08445 6.00437 3.13367 6.07787 3.1957 6.13975L7.62422 10.5683C7.67353 10.6177 7.73209 10.6569 7.79656 10.6836C7.86102 10.7104 7.93013 10.7241 7.99993 10.7241C8.06972 10.7241 8.13883 10.7104 8.2033 10.6836C8.26777 10.6569 8.32633 10.6177 8.37563 10.5683L12.8042 6.13975C13.0653 5.87863 13.0653 5.45762 12.8042 5.19649C12.543 4.93537 12.122 4.93537 11.8609 5.19649L7.99726 9.0548L4.13363 5.19117C3.87784 4.93537 3.4515 4.93537 3.1957 5.19649Z" fill="#606060"/>
</svg>
