<svg width="16" height="16" viewBox="0 0 16 16" fill="none" xmlns="http://www.w3.org/2000/svg">
<path d="M11.4286 16C10.642 16.0014 9.86281 15.8287 9.13579 15.4916C8.40877 15.1545 7.74821 14.6597 7.19198 14.0356C6.49647 13.2569 5.55398 12.8195 4.57135 12.8195C3.58873 12.8195 2.64624 13.2569 1.95073 14.0356C1.84462 14.1547 1.71864 14.2491 1.58 14.3135C1.44136 14.378 1.29277 14.4111 1.14271 14.4111C0.992646 14.4111 0.844053 14.378 0.705413 14.3135C0.566773 14.2491 0.440802 14.1547 0.334692 14.0356C0.228581 13.9166 0.14441 13.7753 0.0869835 13.6197C0.029557 13.4642 -1.11805e-09 13.2975 0 13.1291C1.11805e-09 12.9607 0.029557 12.794 0.0869835 12.6385C0.14441 12.483 0.228581 12.3416 0.334692 12.2226C1.45944 10.9643 2.98299 10.2577 4.57135 10.2577C6.15972 10.2577 7.68327 10.9643 8.80802 12.2226C9.50382 13.0007 10.4462 13.4377 11.4286 13.4377C12.4111 13.4377 13.3535 13.0007 14.0493 12.2226C14.1554 12.1035 14.2814 12.0091 14.42 11.9447C14.5586 11.8802 14.7072 11.8471 14.8573 11.8471C15.0074 11.8471 15.1559 11.8802 15.2946 11.9447C15.4332 12.0091 15.5592 12.1035 15.6653 12.2226C15.7714 12.3416 15.8556 12.483 15.913 12.6385C15.9704 12.794 16 12.9607 16 13.1291C16 13.2975 15.9704 13.4642 15.913 13.6197C15.8556 13.7753 15.7714 13.9166 15.6653 14.0356C15.1092 14.6599 14.4487 15.1548 13.7216 15.4919C12.9946 15.829 12.2153 16.0017 11.4286 16V16ZM11.4286 10.8711C10.642 10.8726 9.86281 10.6998 9.13579 10.3627C8.40877 10.0256 7.74821 9.53087 7.19198 8.90677C6.49647 8.12801 5.55398 7.69063 4.57135 7.69063C3.58873 7.69063 2.64624 8.12801 1.95073 8.90677C1.73643 9.1472 1.44577 9.28226 1.14271 9.28226C0.839644 9.28226 0.548991 9.1472 0.334692 8.90677C0.120392 8.66634 0 8.34026 0 8.00024C0 7.66023 0.120392 7.33414 0.334692 7.09372C1.45944 5.83545 2.98299 5.12887 4.57135 5.12887C6.15972 5.12887 7.68327 5.83545 8.80802 7.09372C9.50382 7.87185 10.4462 8.3088 11.4286 8.3088C12.4111 8.3088 13.3535 7.87185 14.0493 7.09372C14.2636 6.85329 14.5542 6.71822 14.8573 6.71822C15.1604 6.71822 15.451 6.85329 15.6653 7.09372C15.8796 7.33414 16 7.66023 16 8.00024C16 8.34026 15.8796 8.66634 15.6653 8.90677C15.1092 9.53104 14.4487 10.0259 13.7216 10.363C12.9946 10.7001 12.2153 10.8728 11.4286 10.8711V10.8711ZM11.4286 5.74226C10.642 5.74372 9.86281 5.57095 9.13579 5.23387C8.40877 4.89678 7.74821 4.402 7.19198 3.7779C6.49647 2.99914 5.55398 2.56177 4.57135 2.56177C3.58873 2.56177 2.64624 2.99914 1.95073 3.7779C1.84462 3.89695 1.71864 3.99138 1.58 4.05581C1.44136 4.12024 1.29277 4.1534 1.14271 4.1534C0.992646 4.1534 0.844053 4.12024 0.705413 4.05581C0.566773 3.99138 0.440802 3.89695 0.334691 3.7779C0.228581 3.65886 0.14441 3.51753 0.0869835 3.36199C0.029557 3.20644 -2.23611e-09 3.03973 0 2.87138C2.23611e-09 2.70302 0.029557 2.53631 0.0869835 2.38077C0.14441 2.22523 0.228581 2.0839 0.334692 1.96485C1.45944 0.706584 2.98299 0 4.57135 0C6.15972 0 7.68327 0.706584 8.80802 1.96485C9.50382 2.74299 10.4462 3.17993 11.4286 3.17993C12.4111 3.17993 13.3535 2.74299 14.0493 1.96485C14.2636 1.72442 14.5542 1.58935 14.8573 1.58935C15.1604 1.58935 15.451 1.72442 15.6653 1.96485C15.8796 2.20528 16 2.53136 16 2.87138C16 3.21139 15.8796 3.53748 15.6653 3.7779C15.1092 4.40217 14.4487 4.89706 13.7216 5.23416C12.9946 5.57126 12.2153 5.74393 11.4286 5.74226V5.74226Z" fill="#34986B"/>
</svg>
